<svg width="91" height="115" viewBox="0 0 91 115" fill="none" xmlns="http://www.w3.org/2000/svg">
    <mask id="mask0_629_325" style="mask-type:luminance" maskUnits="userSpaceOnUse" x="0" y="0" width="91" height="115">
        <path d="M90.0434 53.0655L60.1643 84.0323L90.0434 114.999H55.9005L26.0108 84.0323L55.9005 53.0655H90.0434ZM55.9005 6.10352e-05L0.40625 57.4941L17.483 75.1862L90.0434 6.10352e-05H55.9005Z" fill="white"/>
    </mask>
    <g mask="url(#mask0_629_325)">
        <path d="M26.0215 84.0323L43.0876 101.725L90.0434 53.0655H55.9005L26.0215 84.0323Z" fill="#39CEFD"/>
    </g>
    <mask id="mask1_629_325" style="mask-type:luminance" maskUnits="userSpaceOnUse" x="0" y="0" width="91" height="115">
        <path d="M90.0434 53.0655L60.1643 84.0323L90.0434 114.999H55.9005L26.0108 84.0323L55.9005 53.0655H90.0434ZM55.9005 6.10352e-05L0.40625 57.4941L17.483 75.1862L90.0434 6.10352e-05H55.9005Z" fill="white"/>
    </mask>
    <g mask="url(#mask1_629_325)">
        <path d="M55.9005 6.10352e-05H90.0434L17.483 75.1862L0.40625 57.4941L55.9005 6.10352e-05Z" fill="#39CEFD"/>
    </g>
    <mask id="mask2_629_325" style="mask-type:luminance" maskUnits="userSpaceOnUse" x="0" y="0" width="91" height="115">
        <path d="M90.0434 53.0655L60.1643 84.0323L90.0434 114.999H55.9005L26.0108 84.0323L55.9005 53.0655H90.0434ZM55.9005 6.10352e-05L0.40625 57.4941L17.483 75.1862L90.0434 6.10352e-05H55.9005Z" fill="white"/>
    </mask>
    <g mask="url(#mask2_629_325)">
        <path d="M43.0876 101.725L55.9006 114.988H90.0435L60.1644 84.0323L43.0876 101.725Z" fill="#03569B"/>
    </g>
    <mask id="mask3_629_325" style="mask-type:luminance" maskUnits="userSpaceOnUse" x="0" y="0" width="91" height="115">
        <path d="M90.0434 53.0655L60.1643 84.0323L90.0434 114.999H55.9005L26.0108 84.0323L55.9005 53.0655H90.0434ZM55.9005 6.10352e-05L0.40625 57.4941L17.483 75.1862L90.0434 6.10352e-05H55.9005Z" fill="white"/>
    </mask>
    <g mask="url(#mask3_629_325)">
        <path d="M68.4143 92.6349L60.1644 84.0323L43.0876 101.725L68.4143 92.6349Z" fill="url(#paint0_linear_629_325)"/>
    </g>
    <mask id="mask4_629_325" style="mask-type:luminance" maskUnits="userSpaceOnUse" x="0" y="0" width="91" height="115">
        <path d="M90.0434 53.0655L60.1643 84.0323L90.0434 114.999H55.9005L26.0108 84.0323L55.9005 53.0655H90.0434ZM55.9005 6.10352e-05L0.40625 57.4941L17.483 75.1862L90.0434 6.10352e-05H55.9005Z" fill="white"/>
    </mask>
    <g mask="url(#mask4_629_325)">
        <path d="M26.0195 84.0262L43.0967 66.3335L60.175 84.0262L43.0967 101.719L26.0195 84.0262Z" fill="#16B9FD"/>
    </g>
    <path d="M90.0434 53.0655L60.1643 84.0323L90.0434 114.999H55.9005L26.0108 84.0323L55.9005 53.0655H90.0434ZM55.9005 6.10352e-05L0.40625 57.4941L17.483 75.1862L90.0434 6.10352e-05H55.9005Z" fill="url(#paint1_radial_629_325)"/>
    <defs>
        <linearGradient id="paint0_linear_629_325" x1="48.0712" y1="105.139" x2="61.2397" y2="92.4284" gradientUnits="userSpaceOnUse">
            <stop stop-color="#1A237E" stop-opacity="0.4"/>
            <stop offset="1" stop-color="#1A237E" stop-opacity="0"/>
        </linearGradient>
        <radialGradient id="paint1_radial_629_325" cx="0" cy="0" r="1" gradientUnits="userSpaceOnUse" gradientTransform="translate(2.92446 7.83806) scale(135.794 140.687)">
            <stop stop-color="white" stop-opacity="0.1"/>
            <stop offset="1" stop-color="white" stop-opacity="0"/>
        </radialGradient>
    </defs>
</svg>
