<svg width="37" height="37" viewBox="0 0 37 37" fill="none" xmlns="http://www.w3.org/2000/svg">
    <path fill-rule="evenodd" clip-rule="evenodd" d="M32.5149 18.5C32.5149 26.2402 26.2402 32.5149 18.5 32.5149C10.7598 32.5149 4.48511 26.2402 4.48511 18.5C4.48511 10.7598 10.7598 4.48514 18.5 4.48514C26.2402 4.48514 32.5149 10.7598 32.5149 18.5ZM23.5203 13.7232C23.5203 11.0494 21.2631 8.86479 18.5004 8.86479C15.7378 8.86479 13.4805 11.0494 13.4805 13.7232C13.4805 16.397 15.7378 18.5816 18.5004 18.5816C21.2631 18.5816 23.5203 16.397 23.5203 13.7232Z" stroke="#00B533" stroke-width="1.80488"/>
    <path d="M24.9027 30.1409V26.9163C24.9027 24.9227 23.2866 23.3066 21.293 23.3066H15.6981C13.7045 23.3066 12.0884 24.9227 12.0884 26.9163V30.1409" stroke="#00B533" stroke-width="1.80488" stroke-linecap="round"/>
</svg>
